<svg xmlns="http://www.w3.org/2000/svg" width="500" height="500" viewBox="0 0 500 500"><path fill-rule="evenodd" clip-rule="evenodd" fill="#5F0D79" d="M461.774 249.797c.278 30.56-4.907 59.912-17.53 87.888-6.485 14.375-13.534 28.428-23.005 41.047-7.121 9.486-14.445 18.939-22.68 27.438-8.125 8.385-17.424 15.648-26.357 23.229-12.566 10.662-27.627 16.809-42.427 23.564-18.113 8.27-37.104 12.906-56.72 14.812-12.759 1.238-25.759 2.188-38.476 1.143-20.027-1.645-40.087-4.939-58.59-13.145-14.78-6.553-29.178-14.281-42.863-22.891-9.851-6.199-18.734-14.199-27.189-22.295-14.257-13.648-26.534-29.096-36.526-46.143-15.164-25.869-24.83-53.695-29.024-83.488-2.209-15.691-2.686-31.45-1.643-47.096 1.171-17.563 4.463-34.935 9.874-51.823 5.615-17.525 13.054-34.138 22.725-49.838 10.179-16.523 22.308-31.282 36.276-44.764 10.125-9.772 21.579-17.516 33.042-25.461 15.495-10.74 32.93-16.75 50.435-23.001 26.167-9.344 53.1-9.073 80.145-7.499 9.51.554 19.229 1.645 28.323 4.304 19.389 5.671 38.234 13.078 55.727 23.346 8.21 4.819 16.386 9.995 23.589 16.163 11.075 9.483 22.02 19.319 31.7 30.181 11.932 13.388 21.291 28.796 28.815 45.123 10.12 21.961 17.158 44.961 20.566 68.903 1.422 9.985 1.257 20.195 1.813 30.303zm-245.895 83.971c-2.754-.43-4.922-.736-7.078-1.111-18.446-3.201-36.656-7.244-50.521-21.096-5.562-5.555-11.115-11.568-14.899-18.363-8.273-14.852-10.918-31.377-11.49-48.253-.686-20.226 3.879-38.778 16.742-54.911 1.07-1.343 1.127-4.129.64-5.977-3.804-14.405-2.358-28.486 2.099-42.447 1.184-3.707 3.69-5.262 7.552-4.601 14.782 2.53 28.314 7.953 40.198 17.252 2.577 2.016 5.253 2.887 8.762 1.828 10.43-3.146 20.99-5.65 31.991-6.098 18.129-.738 36.023.216 53.347 6.134 3.485 1.191 6.112-.014 8.713-2.005 12.171-9.318 25.691-15.397 41.055-16.972 3.05-.312 5.106.765 6.142 4.059 4.48 14.268 5.9 28.589 2.067 43.277-.493 1.889.315 4.48 1.304 6.327 3.209 6 7.271 11.58 10.115 17.733 6.205 13.427 6.755 27.806 5.769 42.29-1.071 15.738-4.223 31.047-12.447 44.666-8.333 13.801-20.067 24.098-35.396 29.734-5.503 2.023-11.188 3.631-16.89 5.008-6.144 1.486-12.404 2.48-18.911 3.748 5.244 7.947 10.081 15.711 10.611 25.004.568 9.973.497 19.984.578 29.979.086 10.553.113 21.107-.011 31.658-.091 7.703 6.743 16.369 15.514 9.939.423-.311 1.022-.373 1.533-.57 15.603-6.014 30.391-13.297 43.874-23.523 17.41-13.207 32.347-28.449 44.591-46.531 10.282-15.184 18.213-31.404 24.029-48.77 6.135-18.316 9.459-37.135 9.967-56.367.972-36.795-7.701-71.353-25.759-103.406-9.861-17.503-22.442-33.096-37.408-46.425-9.237-8.227-19.421-15.571-29.879-22.209-19.149-12.157-40.704-18.716-62.714-22.988-21.312-4.138-42.774-3.832-64.193 1.393-22.312 5.443-44.108 11.822-62.85 25.662-9.635 7.115-19.319 14.314-28.024 22.493-7.916 7.437-14.847 16.003-21.657 24.515-10.769 13.461-18.46 28.719-24.651 44.766-10.354 26.838-14.659 54.562-12.703 83.291 1.922 28.227 9.203 54.98 22.085 80.113 8.724 17.02 20.092 32.355 33.819 45.59 9.401 9.064 19.497 17.805 30.536 24.672 12.54 7.799 26.406 13.502 39.841 19.809 5.786 2.715 12.861-3.771 12.746-9.93-.1-5.344-.008-10.688-.005-16.031.002-5.16 0-10.32 0-15.816-4.268.504-7.918.967-11.576 1.359-17.801 1.912-33.524-2.164-45.2-16.6-3.039-3.756-5.533-8.236-7.169-12.781-2.802-7.789-6.754-14.666-12.814-20.246-3.888-3.58-8.202-6.709-12.014-10.365-3.3-3.164-2.517-5.557 1.919-6.502 8.252-1.76 15.72.852 21.831 5.928 4.494 3.734 8.2 8.705 11.356 13.695 5.391 8.52 12.479 15.117 21.727 18.492 10.462 3.82 20.967 1.979 30.784-3.244.758-.402 1.647-1.291 1.763-2.061 1.335-8.852 5.525-16.456 10.659-24.215z"/></svg>