<svg xmlns="http://www.w3.org/2000/svg" width="500" height="500" viewBox="0 0 500 500"><path d="M250.001 0c-138.074 0-250.001 111.927-250.001 250.001 0 138.076 111.927 249.999 250.001 249.999 138.072 0 249.999-111.923 249.999-249.999 0-138.074-111.927-250.001-249.999-250.001zm0 458.943c-115.212 0-208.941-93.733-208.941-208.942 0-115.208 93.729-208.941 208.941-208.941 115.208 0 208.938 93.733 208.938 208.941 0 115.209-93.729 208.942-208.938 208.942zM404.462 201.172l-.109-.577c-.065-.374-.135-.748-.232-1.114-.057-.22-.138-.431-.206-.642-.106-.326-.212-.651-.342-.968-.091-.22-.196-.439-.297-.651-.14-.3-.285-.593-.452-.877l-.377-.618c-.18-.277-.362-.546-.562-.806-.146-.194-.3-.39-.454-.577-.212-.243-.432-.487-.664-.716-.174-.178-.346-.357-.528-.521-.244-.219-.496-.431-.752-.633-.198-.155-.395-.31-.602-.456l-.22-.163-141.296-94.197c-4.464-2.976-10.274-2.976-14.738 0l-141.295 94.196-.219.163c-.208.146-.403.301-.598.456-.26.203-.512.415-.752.633-.187.164-.357.342-.533.521-.231.229-.451.473-.658.716-.159.188-.313.383-.459.577-.195.26-.383.529-.557.806-.134.203-.26.406-.382.618-.163.284-.309.577-.451.877-.102.211-.208.431-.297.651-.13.317-.236.642-.341.968l-.208.642c-.097.366-.162.74-.231 1.114l-.106.577c-.077.569-.122 1.146-.122 1.732v94.197c0 .585.044 1.162.122 1.74l.106.568c.069.374.134.748.231 1.114l.208.643c.105.324.211.65.341.975.089.222.195.433.297.645.143.3.289.592.451.885l.382.61c.174.276.362.545.557.806.146.203.301.391.459.577.208.243.427.488.658.716.175.178.346.357.533.52.24.221.492.432.752.635.195.155.391.31.598.454l.219.163 141.295 94.197c2.231 1.487 4.802 2.236 7.371 2.236 2.566 0 5.135-.749 7.368-2.236l141.295-94.197.22-.163c.207-.145.403-.299.602-.454.256-.203.508-.414.752-.635.183-.162.354-.342.528-.52.232-.228.452-.473.664-.716.154-.187.308-.374.454-.577.2-.261.383-.529.562-.806l.377-.61c.167-.293.312-.585.452-.885.101-.212.206-.423.297-.645.13-.324.235-.65.342-.975.068-.211.149-.423.206-.643.098-.366.167-.74.232-1.114l.109-.568c.073-.578.119-1.155.119-1.74v-94.197c0-.585-.046-1.162-.119-1.731zm-141.176-67.639l104.088 69.387-46.493 31.103-57.595-38.527v-61.963zm-26.571 0v61.963l-57.592 38.527-46.497-31.103 104.089-69.387zm-114.725 94.238l33.238 22.231-33.238 22.233v-44.464zm114.725 138.7l-104.088-69.388 46.497-31.094 57.592 38.52v61.962zm13.286-85.04l-46.988-31.429 46.988-31.428 46.985 31.428-46.985 31.429zm13.285 85.04v-61.962l57.595-38.52 46.493 31.094-104.088 69.388zm114.724-94.237l-33.233-22.233 33.233-22.231v44.464z"/></svg>