<svg xmlns="http://www.w3.org/2000/svg" width="500" height="500" viewBox="0 0 500 500"><g fill-rule="evenodd" clip-rule="evenodd" fill="#A9352F"><path d="M321.135 333.51c5.312.469 10.42-.408 15.389-2.021 17.377-5.642 29.425-17.548 38.532-32.901 7.657-12.908 11.844-26.929 12.919-41.813.695-9.647-.174-19.264-1.809-28.829-2.879-16.847-8.714-32.59-17.49-47.195-11.145-18.545-25.873-33.671-44.147-45.334-13.747-8.773-28.571-14.983-44.477-18.399-17.33-3.722-34.771-4.107-52.311-1.026-16.766 2.945-32.427 8.78-46.942 17.519-18.596 11.197-33.751 26.01-45.381 44.424-8.574 13.575-14.721 28.156-18.103 43.8-3.344 15.469-4.094 31.088-1.944 46.883 3.607 26.516 14.008 49.904 31.116 70.412 12.445 14.918 27.488 26.541 44.854 35.082 13.215 6.5 27.172 10.856 41.864 12.5 5.61.629 11.258.985 16.899 1.248 6.841.317 11.009 4.172 10.871 10.357-.114 5.152-4.125 8.98-9.261 9.133-18.38.55-36.136-2.756-53.374-8.853-13.711-4.849-26.436-11.646-38.292-20.146-13.15-9.428-24.582-20.558-34.263-33.471-8.467-11.293-15.286-23.513-20.487-36.685-5.049-12.786-8.543-25.984-9.755-39.592-.927-10.408-.8-20.972-.312-31.428.615-13.189 3.736-26 8.13-38.439 4.481-12.685 10.539-24.606 18.114-35.748 9.948-14.63 22.033-27.242 36.195-37.793 11.249-8.38 23.443-15.106 36.556-20.243 12.646-4.954 25.691-8.342 39.124-9.68 19.493-1.941 38.888-.972 57.948 4.169 17.85 4.814 34.41 12.385 49.523 23.006 14.592 10.255 27.134 22.605 37.571 37.129 10.001 13.917 17.476 29.038 22.587 45.359 5.642 18.007 7.774 36.512 6.395 55.247-1.486 20.185-8.16 38.817-19.535 55.616-7.948 11.736-18.043 21.32-30.477 28.213-9.461 5.246-19.564 8.619-30.408 9.862-14.887 1.706-29.137-.589-43.038-5.874-16.529-6.284-31.415-15.417-44.273-27.399-14.179-13.212-27.733-27.107-41.286-40.972-7.027-7.188-13.573-14.859-20.141-22.48-9.266-10.752-15.429-23.121-17.396-37.217-1.966-14.083-.146-27.722 8.297-39.582 3.17-4.454 7.62-8.045 11.709-11.785 5.469-5.002 12.666-5.482 19.473-6.883 2.52-.519 5.114-.711 7.599-1.348 3.986-1.021 6.726.738 9.13 3.578 6.601 7.796 10.263 17.022 12.997 26.696 1.3 4.597 2.191 9.23.973 14.006-.654 2.562-2.202 4.155-4.829 4.792-6.141 1.488-12.289 2.96-18.382 4.627-6.863 1.877-7.146 6.379-3.959 11.752 1.921 3.236 4.591 6.11 7.274 8.798 9.931 9.946 20.064 19.69 30.014 29.62 9.773 9.752 19.309 19.742 29.184 29.389 2.545 2.485 5.793 4.451 9.04 5.964 3.685 1.716 6.677.392 7.983-3.451 1.814-5.337 3.691-10.772 4.466-16.317 1.287-9.205 5.664-10.09 13.157-8.994 12.252 1.791 23.567 6.346 33.274 14.307 2.852 2.339 4.473 5.139 3.549 9.152-1.174 5.098-1.889 10.297-2.894 15.436-1.707 8.725-7.224 14.982-13.597 20.643-1.296 1.151-2.757 2.122-4.143 3.179zM364.908 252.787c-5.208 0-9.947-.015-14.686.006-1.916.01-1.824-1.426-1.831-2.617-.046-7.959-1.379-15.706-3.522-23.356-3.063-10.931-8.02-20.919-14.748-30.024-7.035-9.52-15.566-17.445-25.588-23.792-11.557-7.319-24.066-11.968-37.633-13.71-3.536-.455-7.1-.735-10.66-.951-1.403-.085-2.168-.384-2.143-1.973.062-4.081.063-8.164.004-12.244-.023-1.677.729-2.239 2.282-2.035 8.302 1.089 16.704 1.691 24.882 3.376 12.502 2.577 23.961 8.032 34.514 15.13 10.404 6.998 19.403 15.566 26.989 25.642 7.59 10.081 13.235 21.14 17.071 33.08 2.621 8.16 4.275 16.584 4.674 25.199.123 2.633.252 5.266.395 8.269zM329.027 252.788c-1.917.001-3.841-.104-5.748.031-1.906.136-2.447-.685-2.459-2.468-.062-9.658-2.461-18.792-6.801-27.357-6.744-13.313-16.807-23.358-30.186-30.111-8.697-4.391-17.93-6.492-27.571-7.017-1.604-.087-2.207-.564-2.175-2.19.082-3.998.089-8 .006-11.998-.035-1.68.641-2.161 2.223-2.098 12.025.48 23.499 3.075 34.383 8.357 8.25 4.003 15.615 9.23 22.093 15.623 7.825 7.724 13.884 16.729 18.131 26.917 3.983 9.556 5.982 19.522 6.401 29.844.071 1.749-.309 2.651-2.3 2.499-1.988-.152-3.997-.033-5.997-.032z"/></g></svg>