<svg xmlns="http://www.w3.org/2000/svg" width="256" height="256" viewBox="0 0 256 256"><g transform="translate(-373.642 -318.344)"><path fill="#1D8CB5" d="M583.659 328.849h-164.034c-19.599 0-35.487 15.888-35.487 35.487v164.015c0 19.599 15.888 35.486 35.487 35.486h164.033c19.599 0 35.487-15.888 35.487-35.486v-164.014c.001-19.599-15.888-35.488-35.486-35.488z"/><linearGradient id="a" gradientUnits="userSpaceOnUse" x1="-808.873" y1="199.892" x2="-860.569" y2="49.203" gradientTransform="matrix(-.592 0 0 -.592 -34.542 412.545)"><stop offset="0" stop-color="#fff"/><stop offset="1" stop-color="#fff" stop-opacity="0"/></linearGradient><path opacity=".781" fill="url(#a)" enable-background="new" d="M557.056 338.895h-110.829c-29.337 0-52.955 23.81-52.955 53.385v108.127c.95 23.087 4.603 8.491 11.555-17.075 8.081-29.713 34.396-55.682 66.445-75.145 24.461-14.855 51.84-24.341 101.679-25.244 28.265-.511 25.77-36.683-15.895-44.048z"/></g><g fill="#fff"><path d="M81.623 207.779v-106.289h-35.326v106.289h35.326zm-17.656-120.801c12.311 0 19.985-8.162 19.985-18.363-.228-10.427-7.674-18.363-19.753-18.363-12.089 0-19.988 7.936-19.988 18.363 0 10.201 7.664 18.363 19.523 18.363h.233z"/><path d="M101.174 207.779h35.332v-59.356c0-3.178.23-6.353 1.165-8.623 2.547-6.35 8.365-12.922 18.122-12.922 12.785 0 17.896 9.75 17.896 24.036v56.864h35.325v-60.946c0-32.648-17.425-47.838-40.671-47.838-19.056 0-27.426 10.649-32.074 17.905h.238v-15.409h-35.332c.469 9.972 0 106.289 0 106.289z"/></g></svg>