<svg xmlns="http://www.w3.org/2000/svg" width="500" height="500" viewBox="0 0 500 500"><path fill-rule="evenodd" clip-rule="evenodd" fill="#6495ed" d="M110.347 346.101c30.187 1.374 57.401-4.974 80.952-21.933-10.815-4.026-22.188-7.113-32.431-12.391-10.507-5.415-17.638-14.729-21.573-27.367 15.601 1.733 30.49 7.061 47.188.659-16.984-6.055-31.339-13.553-43.177-24.96-11.689-11.262-21.732-23.629-23.171-41.609 8.532 3.078 16.085 5.802 23.64 8.527l.857-1.504c-14.325-12.234-24.677-26.438-24.317-46.291.182-10.039 4.1-18.544 9.817-28.02 31.89 39.975 75.664 47.33 122.003 47.708.654-7.988.43-15.751 2.043-23.111 6.523-29.747 37.177-48.728 66.658-41.814 10.617 2.49 18.611 9.031 26 16.575 8.779 8.963 8.822 8.982 19.89 2.719 5.642-3.192 11.182-6.562 16.79-9.812.232-.134.703.142 1.73.385-5.006 13.655-13.278 24.803-24.103 34.233l.652 1.57c10.53-3.509 21.062-7.017 31.593-10.526l1.076.762c-5.271 6.362-9.632 13.905-16.02 18.811-9.816 7.539-11.528 16.554-12.065 28.243-3.217 70.164-49.166 139.53-135.131 150.931-39.788 5.277-78.061-.763-114.193-18.745-1.662-.827-3.143-2.018-4.708-3.04z"/></svg>
